<?xml version="1.0" encoding="utf-8"?>
<!-- Generator: Adobe Illustrator 19.0.0, SVG Export Plug-In . SVG Version: 6.00 Build 0)  -->
<svg version="1.1" id="Camada_1" xmlns="http://www.w3.org/2000/svg" xmlns:xlink="http://www.w3.org/1999/xlink" x="0px" y="0px"
	 viewBox="0 6 26 16" style="enable-background:new 0 6 26 16;" xml:space="preserve">
<style type="text/css">
	.st0{fill:#FFFFFF;}
</style>
<g id="XMLID_19_">
	<g id="XMLID_68_">
		<rect id="XMLID_18_" y="6" class="st0" width="2.3" height="16"/>
		<rect id="XMLID_17_" x="23.7" y="6" class="st0" width="2.3" height="16"/>
		<rect id="XMLID_16_" x="4.7" y="6" class="st0" width="0.8" height="13"/>
		<rect id="XMLID_15_" x="8.7" y="6" class="st0" width="0.7" height="13"/>
		<rect id="XMLID_14_" x="11.6" y="6" class="st0" width="2.8" height="13"/>
		<rect id="XMLID_13_" x="16.4" y="6" class="st0" width="1" height="13"/>
		<rect id="XMLID_12_" x="20.2" y="6" class="st0" width="1.4" height="13"/>
	</g>
	<g id="XMLID_20_">
		<g id="XMLID_21_">
			<g id="XMLID_59_">
				<g id="XMLID_60_">
					<g id="XMLID_61_">
						<g id="XMLID_62_">
							<g id="XMLID_63_">
								<g id="XMLID_64_">
									<g id="XMLID_65_">
										<path id="XMLID_66_" class="st0" d="M4.6,21.7h0.5v-1.6v-0.2L5,20l-0.4,0.3l-0.1-0.2l0.8-0.6h0.1v2.2h0.5V22H4.6V21.7z"/>
									</g>
								</g>
							</g>
						</g>
					</g>
				</g>
			</g>
			<g id="XMLID_50_">
				<g id="XMLID_51_">
					<g id="XMLID_52_">
						<g id="XMLID_53_">
							<g id="XMLID_54_">
								<g id="XMLID_55_">
									<g id="XMLID_56_">
										<path id="XMLID_57_" class="st0" d="M9.8,20.1c0,0.1,0,0.2-0.1,0.4c0,0.1-0.1,0.3-0.2,0.4c-0.1,0.1-0.2,0.2-0.2,0.4
											c-0.1,0.1-0.2,0.2-0.3,0.3l-0.2,0.1l0,0H9h0.7V22H8.5v-0.1c0.1-0.1,0.1-0.1,0.2-0.2c0.1-0.1,0.1-0.2,0.2-0.3
											c0.1-0.1,0.2-0.2,0.2-0.3c0.1-0.1,0.1-0.2,0.2-0.3c0.1-0.1,0.1-0.2,0.1-0.3c0-0.1,0.1-0.2,0.1-0.3s0-0.2-0.1-0.3
											c-0.1-0.1-0.2-0.1-0.3-0.1s-0.2,0-0.3,0.1c-0.1,0-0.2,0.1-0.2,0.1l-0.1-0.2c0.1-0.1,0.2-0.1,0.3-0.2
											c0.1,0,0.2-0.1,0.4-0.1c0.1,0,0.2,0,0.3,0s0.1,0.1,0.2,0.1c0.1,0.1,0.1,0.1,0.1,0.2C9.8,20,9.8,20,9.8,20.1z"/>
									</g>
								</g>
							</g>
						</g>
					</g>
				</g>
			</g>
			<g id="XMLID_41_">
				<g id="XMLID_42_">
					<g id="XMLID_43_">
						<g id="XMLID_44_">
							<g id="XMLID_45_">
								<g id="XMLID_46_">
									<g id="XMLID_47_">
										<path id="XMLID_48_" class="st0" d="M13,21.8c0.1,0,0.1,0,0.2,0c0.1,0,0.1-0.1,0.2-0.1c0,0,0.1-0.1,0.1-0.2
											c0-0.1,0-0.1,0-0.2c0-0.2,0-0.3-0.1-0.4c-0.1-0.1-0.2-0.1-0.4-0.1h-0.3v-0.1l0.5-0.8l0.2-0.1h-0.2h-0.7v-0.3h1.2v0.1
											l-0.5,0.8l-0.1,0.1l0,0h0.1c0.1,0,0.2,0,0.3,0s0.1,0.1,0.2,0.1c0.1,0.1,0.1,0.1,0.1,0.2c0,0.1,0,0.2,0,0.3s0,0.2-0.1,0.3
											c-0.1,0.1-0.1,0.2-0.2,0.2c-0.1,0.1-0.2,0.1-0.3,0.1c0,0.3-0.1,0.3-0.2,0.3s-0.2,0-0.3,0s-0.2,0-0.2-0.1l0.1-0.2
											c0.1,0,0.1,0,0.2,0.1C12.8,21.8,12.9,21.8,13,21.8z"/>
									</g>
								</g>
							</g>
						</g>
					</g>
				</g>
			</g>
			<g id="XMLID_31_">
				<g id="XMLID_32_">
					<g id="XMLID_33_">
						<g id="XMLID_34_">
							<g id="XMLID_35_">
								<g id="XMLID_36_">
									<g id="XMLID_37_">
										<path id="XMLID_38_" class="st0" d="M18,21.2h-0.4V22h-0.3v-0.7h-1.1v-0.1l1.1-1.6h0.2V21H18V21.2z M17.3,20.3V20l0,0
											V20.3l-0.6,0.6L16.6,21h0.2h0.5C17.3,21,17.3,20.3,17.3,20.3z"/>
									</g>
								</g>
							</g>
						</g>
					</g>
				</g>
			</g>
			<g id="XMLID_22_">
				<g id="XMLID_23_">
					<g id="XMLID_24_">
						<g id="XMLID_25_">
							<g id="XMLID_26_">
								<g id="XMLID_27_">
									<g id="XMLID_28_">
										<path id="XMLID_29_" class="st0" d="M20.6,21.8c0.2,0,0.3,0,0.4-0.1c0.1-0.1,0.2-0.2,0.2-0.4c0-0.2-0.1-0.3-0.2-0.4
											c-0.1-0.1-0.2-0.1-0.4-0.1h-0.3v-1.2h1.1v0.3h-0.8v0.7h0.1c0.2,0,0.4,0.1,0.5,0.2c0.1,0.1,0.2,0.3,0.2,0.5
											c0,0.1,0,0.2-0.1,0.3c0,0.1-0.1,0.2-0.2,0.2c-0.1,0.1-0.2,0.1-0.3,0.1c-0.1,0-0.2,0.1-0.3,0.1c-0.1,0-0.2,0-0.3,0
											c-0.1,0-0.1,0-0.2-0.1l0.1-0.2c0.1,0,0.1,0,0.2,0C20.5,21.8,20.5,21.8,20.6,21.8z"/>
									</g>
								</g>
							</g>
						</g>
					</g>
				</g>
			</g>
		</g>
	</g>
</g>
</svg>
