<?xml version="1.0" encoding="utf-8"?>
<!-- Generator: Adobe Illustrator 19.0.0, SVG Export Plug-In . SVG Version: 6.00 Build 0)  -->
<svg version="1.1" id="Camada_1" xmlns="http://www.w3.org/2000/svg" xmlns:xlink="http://www.w3.org/1999/xlink" x="0px" y="0px"
	 viewBox="-1 5.5 22.5 16.5" style="enable-background:new -1 5.5 22.5 16.5;" xml:space="preserve">
<style type="text/css">
	.st0{fill:#FFFFFF;}
</style>
<path class="st0" d="M19.3,5.5c1.2,0,2.3,1,2.3,2.3v12c0,1.2-1,2.3-2.3,2.3h-18c-1.2,0-2.3-1-2.3-2.3v-12c0-1.3,1-2.3,2.3-2.3H19.3z
	 M20,14.5H0.5v5.3c0,0.4,0.3,0.8,0.8,0.8h18c0.4,0,0.8-0.3,0.8-0.8L20,14.5L20,14.5z M6.5,17.5V19H2v-1.5H6.5z M20,11.5H0.5V13H20
	V11.5z M19.3,7h-18C0.9,7,0.5,7.3,0.5,7.8v2.3H20V7.8C20,7.3,19.7,7,19.3,7z"/>
</svg>
