<?xml version="1.0" encoding="utf-8"?>
<!-- Generator: Adobe Illustrator 19.0.0, SVG Export Plug-In . SVG Version: 6.00 Build 0)  -->
<svg version="1.1" id="Camada_2" xmlns="http://www.w3.org/2000/svg" xmlns:xlink="http://www.w3.org/1999/xlink" x="0px" y="0px"
	 viewBox="48 -24.3 122.9 74.3" style="enable-background:new 48 -24.3 122.9 74.3;" xml:space="preserve">
<style type="text/css">
	.st0{fill:#FFFFFF;}
</style>
<g>
	<g>
		<path class="st0" d="M150,26c-6.6,0-12,5.4-12,12s5.4,12,12,12s12-5.4,12-12S156.6,26,150,26z M150,42.7c-2.5,0-4.6-2.1-4.6-4.6
			s2.1-4.6,4.6-4.6s4.6,2.1,4.6,4.6S152.5,42.7,150,42.7z"/>
	</g>
	<polygon class="st0" points="128.8,-0.6 128.8,10.9 143.7,10.9 137.7,-0.5 	"/>
	<g>
		<g>
			<path class="st0" d="M92.4,26c-6.6,0-12,5.4-12,12s5.4,12,12,12s12-5.4,12-12C104.3,31.4,99,26,92.4,26z M92.4,42.7
				c-2.6,0-4.6-2.1-4.6-4.6s2.1-4.6,4.6-4.6S97,35.5,97,38C97,40.7,94.9,42.7,92.4,42.7z"/>
		</g>
	</g>
	<polygon class="st0" points="128.8,-0.6 128.8,10.9 143.7,10.9 137.7,-0.5 	"/>
	<g>
		<polygon class="st0" points="128.8,-0.6 128.8,10.9 143.7,10.9 137.7,-0.5 		"/>
		<path class="st0" d="M169,18.2l-19.1-7.3l-7.6-16.5l-18-0.1v-12.1c0-1.8-0.7-3.4-1.9-4.6s-2.8-1.9-4.6-1.9H68
			c-1.8,0-3.4,0.7-4.6,1.9c-1.1,1.1-1.8,2.5-1.9,4c0,0.1,0,0.2,0,0.3v6.6h13c2.2,0,4,1.7,4,3.8S76.7-4,74.5-4h-13v2h13
			c2.2,0,4,1.7,4,3.8c0,2.1-1.8,3.8-4,3.8h-13v2h13c2.6,0,4.7,1.7,4.7,3.8s-2,3.8-4.7,3.8h-13v19.2c0,1.8,0.7,3.5,1.9,4.7
			c1.2,1.2,2.8,2,4.6,2h9.7c-0.2-1-0.3-2-0.3-3.1c0-8.3,6.7-15,15-15s15,6.7,15,15c0,1.1-0.1,2.1-0.3,3.1h3.7h0.1h11.8
			c1,0,1.8-0.8,1.8-1.8v-2h10.7c0.8-18.4,27.3-21,30,0h5.8L169,18.2z M128.8,10.9V-0.6l8.9,0.1l6,11.4H128.8z"/>
	</g>
	<g>
		<path class="st0" d="M50.5,13.3c-1.5,0-2.6-0.8-2.6-1.8s1.2-1.8,2.6-1.8h23.9c1.5,0,2.7,0.8,2.7,1.8s-1.2,1.8-2.7,1.8H50.5
			L50.5,13.3z"/>
	</g>
	<g>
		<path class="st0" d="M56,3.7c-1.1,0-2-0.8-2-1.8s0.9-1.8,2-1.8h18.4c1.1,0,2,0.8,2,1.8s-0.9,1.8-2,1.8H56L56,3.7z"/>
	</g>
	<g>
		<path class="st0" d="M58.5-6c-1.1,0-2-0.8-2-1.8s0.9-1.8,2-1.8h15.9c1.1,0,2,0.8,2,1.8S75.5-6,74.4-6H58.5L58.5-6z"/>
	</g>
</g>
</svg>
