<?xml version="1.0" encoding="utf-8"?>
<!-- Generator: Adobe Illustrator 19.0.0, SVG Export Plug-In . SVG Version: 6.00 Build 0)  -->
<svg version="1.1" id="Camada_1" xmlns="http://www.w3.org/2000/svg" xmlns:xlink="http://www.w3.org/1999/xlink" x="0px" y="0px"
	 viewBox="0 0 36 36" style="enable-background:new 0 0 36 36;" xml:space="preserve">
<style type="text/css">
	.st0{fill:#FFFFFF;}
</style>
<path class="st0" d="M32.7,0H3.3C1.5,0,0,1.5,0,3.3v29.5C0,34.5,1.5,36,3.3,36h16.4V21.3h-4.9v-4.9h4.9v-2.6c0-5,2.4-7.2,6.6-7.2
	c2,0,3,0.1,3.5,0.2v4.7h-2.8c-1.8,0-2.4,0.9-2.4,2.8v2.1h5.2L29,21.3h-4.5V36h8.2c1.8,0,3.3-1.5,3.3-3.3V3.3C36,1.5,34.5,0,32.7,0z"
	/>
</svg>
