<?xml version="1.0" encoding="utf-8"?>
<!-- Generator: Adobe Illustrator 19.0.0, SVG Export Plug-In . SVG Version: 6.00 Build 0)  -->
<svg version="1.1" id="Camada_1" xmlns="http://www.w3.org/2000/svg" xmlns:xlink="http://www.w3.org/1999/xlink" x="0px" y="0px"
	 viewBox="0 0 36 36" style="enable-background:new 0 0 36 36;" xml:space="preserve">
<style type="text/css">
	.st0{fill:#FFFFFF;}
</style>
<path class="st0" d="M10,0C4.5,0,0,4.5,0,10v16c0,5.5,4.5,10,10,10h16c5.5,0,10-4.5,10-10V10c0-5.5-4.5-10-10-10H10z M10,4h16
	c3.3,0,6,2.7,6,6v16c0,3.3-2.7,6-6,6H10c-3.3,0-6-2.7-6-6V10C4,6.7,6.7,4,10,4z M28,6c-1.1,0-2,0.9-2,2s0.9,2,2,2s2-0.9,2-2
	S29.1,6,28,6z M18,8C12.5,8,8,12.5,8,18s4.5,10,10,10s10-4.5,10-10S23.5,8,18,8z M18,12c3.3,0,6,2.7,6,6s-2.7,6-6,6s-6-2.7-6-6
	S14.7,12,18,12z"/>
</svg>
